<svg preserveAspectRatio="none" width="100%" height="100%" overflow="visible" style="display: block;" viewBox="0 0 35 35" fill="none" xmlns="http://www.w3.org/2000/svg">
<g id="Group">
<path id="Vector" d="M17.5 35C27.165 35 35 27.165 35 17.5C35 7.83502 27.165 0 17.5 0C7.83502 0 0 7.83502 0 17.5C0 27.165 7.83502 35 17.5 35Z" fill="var(--fill-0, #FFC84D)"/>
<path id="Vector_2" d="M13.336 14.964C14.2992 14.964 15.08 13.9114 15.08 12.613C15.08 11.3146 14.2992 10.262 13.336 10.262C12.3728 10.262 11.592 11.3146 11.592 12.613C11.592 13.9114 12.3728 14.964 13.336 14.964Z" fill="var(--fill-0, black)"/>
<path id="Vector_3" d="M21.664 14.964C22.6272 14.964 23.408 13.9114 23.408 12.613C23.408 11.3146 22.6272 10.262 21.664 10.262C20.7008 10.262 19.92 11.3146 19.92 12.613C19.92 13.9114 20.7008 14.964 21.664 14.964Z" fill="var(--fill-0, black)"/>
<path id="Vector_4" d="M25.261 18.626H9.738C7.63214 18.626 5.925 20.3331 5.925 22.439V22.663C5.925 24.7689 7.63214 26.476 9.738 26.476H25.261C27.3669 26.476 29.074 24.7689 29.074 22.663V22.439C29.074 20.3331 27.3669 18.626 25.261 18.626Z" fill="var(--fill-0, white)"/>
<path id="Vector_5" d="M18.273 18.626H17.273V26.476H18.273V18.626Z" fill="var(--fill-0, #F78700)"/>
<path id="Vector_6" d="M12.053 18.626H11.053V26.476H12.053V18.626Z" fill="var(--fill-0, #F78700)"/>
<path id="Vector_7" d="M24.494 18.626H23.494V26.476H24.494V18.626Z" fill="var(--fill-0, #F78700)"/>
<path id="Vector_8" d="M29.076 22.051H5.926V23.051H29.076V22.051Z" fill="var(--fill-0, #F78700)"/>
</g>
</svg>
