<svg preserveAspectRatio="none" width="100%" height="100%" overflow="visible" style="display: block;" viewBox="0 0 35 35" fill="none" xmlns="http://www.w3.org/2000/svg">
<g id="Group">
<path id="Vector" d="M17.5 35C27.165 35 35 27.165 35 17.5C35 7.83502 27.165 0 17.5 0C7.83502 0 0 7.83502 0 17.5C0 27.165 7.83502 35 17.5 35Z" fill="var(--fill-0, #FFC84D)"/>
<path id="Vector_2" d="M9.694 14.698C9.447 14.82 9.163 14.606 9.218 14.336C9.523 12.837 10.813 11.711 12.358 11.711C13.903 11.711 15.193 12.837 15.498 14.336C15.553 14.606 15.269 14.82 15.022 14.698C14.483 14.432 13.565 14.097 12.358 14.097C11.151 14.097 10.233 14.432 9.694 14.698Z" fill="var(--fill-0, black)"/>
<path id="Vector_3" d="M25.306 14.698C25.553 14.82 25.837 14.606 25.782 14.336C25.477 12.837 24.187 11.711 22.642 11.711C21.097 11.711 19.807 12.837 19.502 14.336C19.447 14.606 19.731 14.82 19.978 14.698C20.517 14.432 21.435 14.097 22.642 14.097C23.849 14.097 24.767 14.432 25.306 14.698Z" fill="var(--fill-0, black)"/>
<path id="Vector_4" d="M18.196 21.688C18.66 21.389 19.478 20.975 19.478 20.139C19.478 19.68 19.044 19.036 17.942 18.703C17.582 18.594 17.331 18.523 17.334 18.314C17.337 18.105 17.551 18.072 17.894 18.072C18.228 18.072 20.769 18.522 20.866 20.12C20.937 21.291 20.141 21.772 19.501 22.256C20.142 22.74 21.026 23.61 20.957 24.585C20.832 26.352 18.806 26.771 18.027 26.771C17.566 26.771 17.286 26.731 17.255 26.533C17.224 26.335 17.423 26.244 17.942 26.038C18.807 25.694 19.417 25.153 19.417 24.434C19.417 23.504 18.581 22.952 18.195 22.707C17.809 22.462 17.563 22.372 17.571 22.196C17.58 21.989 17.819 21.931 18.197 21.688H18.196Z" fill="var(--fill-0, #FF6D00)"/>
</g>
</svg>
