<svg preserveAspectRatio="none" width="100%" height="100%" overflow="visible" style="display: block;" viewBox="0 0 35.667 35" fill="none" xmlns="http://www.w3.org/2000/svg">
<g id="Group">
<g id="Group_2">
<path id="Vector" d="M17.5 35C27.165 35 35 27.165 35 17.5C35 7.83502 27.165 0 17.5 0C7.83502 0 0 7.83502 0 17.5C0 27.165 7.83502 35 17.5 35Z" fill="var(--fill-0, #E7E5E4)"/>
<path id="Vector_2" d="M9.787 15.392C9.54 15.27 9.256 15.484 9.311 15.754C9.616 17.253 10.906 18.379 12.451 18.379C13.996 18.379 15.286 17.253 15.591 15.754C15.646 15.484 15.362 15.27 15.115 15.392C14.576 15.658 13.658 15.993 12.451 15.993C11.244 15.993 10.326 15.658 9.787 15.392Z" fill="var(--fill-0, black)"/>
<path id="Vector_3" d="M25.399 15.392C25.646 15.27 25.93 15.484 25.875 15.754C25.57 17.253 24.28 18.379 22.735 18.379C21.19 18.379 19.9 17.253 19.595 15.754C19.54 15.484 19.824 15.27 20.071 15.392C20.61 15.658 21.528 15.993 22.735 15.993C23.942 15.993 24.86 15.658 25.399 15.392Z" fill="var(--fill-0, black)"/>
<path id="Vector_4" d="M23.547 9.197C22.407 8.665 21.871 8.097 21.425 7.59C21.168 7.298 20.804 7.432 20.807 7.848C20.814 8.747 21.369 9.968 22.863 10.665C24.357 11.361 25.649 11.002 26.342 10.429C26.663 10.164 26.532 9.798 26.142 9.789C25.467 9.774 24.687 9.728 23.547 9.197Z" fill="var(--fill-0, black)"/>
<path id="Vector_5" d="M11.453 9.197C12.593 8.665 13.129 8.097 13.575 7.59C13.832 7.298 14.196 7.432 14.193 7.848C14.186 8.747 13.631 9.968 12.137 10.665C10.643 11.361 9.351 11.002 8.658 10.429C8.337 10.164 8.468 9.798 8.858 9.789C9.533 9.774 10.313 9.728 11.453 9.197Z" fill="var(--fill-0, black)"/>
<path id="Vector_6" d="M17.5 27.416C18.8735 27.416 19.987 26.3025 19.987 24.929C19.987 23.5555 18.8735 22.442 17.5 22.442C16.1265 22.442 15.013 23.5555 15.013 24.929C15.013 26.3025 16.1265 27.416 17.5 27.416Z" fill="var(--fill-0, #78716C)"/>
</g>
<path id="Vector_7" d="M33.867 26.791C34.246 25.223 33.589 23.531 32.12 22.683C30.334 21.652 28.049 22.264 27.018 24.05C26.671 24.651 26.525 25.308 26.532 25.955L21.633 24.422L25.41 27.898C24.846 28.215 24.35 28.67 24.003 29.271C22.972 31.057 23.584 33.342 25.37 34.373C26.838 35.221 28.632 34.944 29.801 33.832C31.715 34.757 34.042 34.08 35.121 32.21C36.201 30.34 35.625 27.986 33.867 26.791Z" fill="var(--fill-0, #D6D3D1)"/>
</g>
</svg>
