<svg preserveAspectRatio="none" width="100%" height="100%" overflow="visible" style="display: block;" viewBox="0 0 30.4 35.034" fill="none" xmlns="http://www.w3.org/2000/svg">
<g id="Group">
<path id="Vector" d="M15.2 35.034C23.5947 35.034 30.4 27.1914 30.4 17.517C30.4 7.84263 23.5947 0 15.2 0C6.80527 0 0 7.84263 0 17.517C0 27.1914 6.80527 35.034 15.2 35.034Z" fill="var(--fill-0, #FFC84D)"/>
<g id="Group_2">
<path id="Vector_2" d="M10.481 15.485C11.6386 15.485 12.577 14.2623 12.577 12.754C12.577 11.2457 11.6386 10.023 10.481 10.023C9.32341 10.023 8.385 11.2457 8.385 12.754C8.385 14.2623 9.32341 15.485 10.481 15.485Z" fill="var(--fill-0, black)"/>
<path id="Vector_3" d="M19.919 15.485C21.0766 15.485 22.015 14.2623 22.015 12.754C22.015 11.2457 21.0766 10.023 19.919 10.023C18.7614 10.023 17.823 11.2457 17.823 12.754C17.823 14.2623 18.7614 15.485 19.919 15.485Z" fill="var(--fill-0, black)"/>
</g>
<path id="Vector_4" d="M15.2 24.952C16.3173 24.952 17.223 24.0463 17.223 22.929C17.223 21.8117 16.3173 20.906 15.2 20.906C14.0827 20.906 13.177 21.8117 13.177 22.929C13.177 24.0463 14.0827 24.952 15.2 24.952Z" fill="var(--fill-0, #FF6D00)"/>
</g>
</svg>
