<svg preserveAspectRatio="none" width="100%" height="100%" overflow="visible" style="display: block;" viewBox="0 0 35 35" fill="none" xmlns="http://www.w3.org/2000/svg">
<g id="Group">
<path id="Vector" d="M17.5 35C27.165 35 35 27.165 35 17.5C35 7.83502 27.165 0 17.5 0C7.83502 0 0 7.83502 0 17.5C0 27.165 7.83502 35 17.5 35Z" fill="var(--fill-0, #E7E5E4)"/>
<path id="Vector_2" d="M12.991 16.543C14.1872 16.543 15.157 15.5732 15.157 14.377C15.157 13.1808 14.1872 12.211 12.991 12.211C11.7948 12.211 10.825 13.1808 10.825 14.377C10.825 15.5732 11.7948 16.543 12.991 16.543Z" fill="var(--fill-0, black)"/>
<path id="Vector_3" d="M22.009 16.543C23.1848 16.543 24.138 15.4143 24.138 14.022C24.138 12.6297 23.1848 11.501 22.009 11.501C20.8332 11.501 19.88 12.6297 19.88 14.022C19.88 15.4143 20.8332 16.543 22.009 16.543Z" fill="var(--fill-0, black)"/>
<path id="Vector_4" d="M12.59 10.118C13.75 10.219 14.397 10.544 14.945 10.845C15.261 11.018 15.536 10.785 15.401 10.424C15.111 9.644 14.241 8.757 12.721 8.624C11.201 8.491 10.19 9.213 9.769 9.931C9.574 10.263 9.804 10.54 10.145 10.424C10.737 10.224 11.43 10.016 12.59 10.117V10.118Z" fill="var(--fill-0, black)"/>
<path id="Vector_5" d="M22.543 7.118C21.383 7.219 20.736 7.544 20.188 7.845C19.872 8.018 19.597 7.785 19.732 7.424C20.022 6.644 20.892 5.757 22.412 5.624C23.932 5.491 24.943 6.213 25.364 6.931C25.559 7.263 25.329 7.54 24.988 7.424C24.396 7.224 23.703 7.016 22.543 7.117V7.118Z" fill="var(--fill-0, black)"/>
<path id="Vector_6" d="M23.197 22.638H11.802C11.249 22.638 10.802 22.19 10.802 21.638C10.802 21.086 11.249 20.638 11.802 20.638H23.197C23.75 20.638 24.197 21.086 24.197 21.638C24.197 22.19 23.75 22.638 23.197 22.638Z" fill="var(--fill-0, #78716C)"/>
</g>
</svg>
