<svg width="308" height="52" viewBox="0 0 308 51.8625" fill="none" xmlns="http://www.w3.org/2000/svg">
<g id="Frame 12">
<g id="TRADEMIND">
<path d="M15.4751 7.74143L16.4768 8.34861H14.774C13.3049 8.34861 11.9027 8.71965 10.5672 9.46175C9.23166 10.1701 7.54559 11.4857 5.50895 13.4084H5.40879L6.21009 7.43785H33.4042L34.2055 13.4084H34.1054C32.0354 11.4857 30.3326 10.1701 28.9971 9.46175C27.695 8.71965 26.2927 8.34861 24.7903 8.34861H23.0875L24.0891 7.74143V44.2729H15.4751V7.74143Z" fill="var(--fill-0, #1C1917)"/>
<path d="M49.9221 28.3853C49.5548 28.0142 49.2042 27.7612 48.8704 27.6263C48.5699 27.4914 48.2026 27.4239 47.7686 27.4239H45.565L46.5165 27.0697V44.2729H37.9026V7.43785H49.9721C55.2474 7.43785 59.1871 8.19681 61.7913 9.71474C64.429 11.1989 65.7478 13.4758 65.7478 16.5454C65.7478 18.2995 65.2303 19.8343 64.1952 21.1498C63.1936 22.4653 61.8414 23.5448 60.1387 24.388C58.4359 25.2313 56.5161 25.8891 54.3793 26.3614L55.9819 24.7928L66.8996 36.0761V46.0944H66.4489L49.9221 28.3853ZM46.0658 26.2096C46.3997 26.3108 47.0007 26.412 47.8687 26.5131C48.7702 26.5806 49.5214 26.6143 50.1224 26.6143C51.5914 26.6143 52.8769 26.1927 53.9787 25.3494C55.1138 24.4724 55.9652 23.3086 56.5328 21.8582C57.1338 20.374 57.4343 18.7548 57.4343 17.0008C57.4343 14.2685 56.7665 12.1266 55.431 10.5749C54.0955 9.02324 52.109 8.24741 49.4713 8.24741H45.9156L46.5165 7.94382V26.8673L46.0658 26.2096Z" fill="var(--fill-0, #1C1917)"/>
<path d="M67.6411 44.2729C68.7762 42.249 69.7612 40.3938 70.5959 38.7072C71.4305 37.0206 72.3487 35.0473 73.3503 32.7872L75.4537 28.0311L84.819 6.3247H85.0193L101.396 44.2729H91.9806L80.4619 17.355L84.4684 9.61354L76.3552 28.4359C74.6524 32.3825 73.5674 35.5195 73.0999 37.847C72.6325 40.1745 72.5323 42.3165 72.7994 44.2729H67.6411ZM74.5523 31.5223H90.5783L91.1793 32.4331H73.9513L74.5523 31.5223Z" fill="var(--fill-0, #1C1917)"/>
<path d="M104.368 7.43785H118.19C122.297 7.43785 125.92 8.12935 129.058 9.51235C132.23 10.8616 134.684 12.9024 136.42 15.6347C138.189 18.3669 139.074 21.6726 139.074 25.5518C139.074 29.4647 138.173 32.8378 136.37 35.6713C134.6 38.471 132.029 40.613 128.657 42.0972C125.285 43.5477 121.245 44.2729 116.538 44.2729H104.368V7.43785ZM112.782 42.9574C113.316 43.126 113.967 43.261 114.735 43.3621C115.536 43.4296 116.688 43.4633 118.19 43.4633C120.694 43.4633 122.798 42.7718 124.501 41.3888C126.203 40.0058 127.489 37.9988 128.357 35.3677C129.258 32.7366 129.709 29.5153 129.709 25.7036C129.709 22.1955 129.242 19.1428 128.307 16.5454C127.372 13.9143 126.003 11.8736 124.2 10.4231C122.431 8.97264 120.31 8.24741 117.84 8.24741H112.531L112.982 7.94382V43.9187L112.782 42.9574Z" fill="var(--fill-0, #1C1917)"/>
<path d="M144.081 7.43785H166.918L167.619 12.447H167.519C165.549 11.064 163.446 10.0352 161.209 9.36056C159.005 8.68592 156.801 8.34861 154.598 8.34861H151.893L152.695 7.94382V43.7669L151.893 43.3621H154.898C157.169 43.3621 159.456 43.0248 161.759 42.3502C164.063 41.6418 166.283 40.4781 168.42 38.859H168.52L167.419 44.2729H144.081V7.43785ZM164.013 27.8793C163.412 27.2046 162.194 26.6481 160.357 26.2096C158.554 25.771 156.351 25.5518 153.746 25.5518H149.49V24.641H153.746C156.451 24.641 158.688 24.4724 160.457 24.1351C162.26 23.764 163.446 23.258 164.013 22.6171H164.113V27.8793H164.013Z" fill="var(--fill-0, #1C1917)"/>
<path d="M200.735 9.91713L201.987 8.4498L189.366 41.9454H189.166L173.14 7.58964V7.43785H182.355L193.072 30.6621L189.517 38.7578L201.336 7.43785H208.998L212.454 44.2729H203.94L200.735 9.91713ZM170.886 44.2729C171.988 40.2588 172.84 34.8786 173.441 28.1323L175.143 8.14621L176.145 8.29801L174.442 28.1829C173.941 34.322 174.225 39.6854 175.294 44.2729H170.886Z" fill="var(--fill-0, #1C1917)"/>
<path d="M217.687 7.43785H226.301V44.2729H217.687V7.43785Z" fill="var(--fill-0, #1C1917)"/>
<path d="M230.642 7.58964V7.43785H240.909L259.889 32.3319L259.238 40.5793V23.5279C259.238 17.0514 258.671 11.688 257.536 7.43785H261.943C260.808 11.688 260.24 17.0514 260.24 23.5279V44.8801H259.539L230.642 7.58964ZM232.595 44.2729C233.73 40.0227 234.298 34.6594 234.298 28.1829V10.3219H235.3V28.1829C235.3 34.6594 235.867 40.0227 237.002 44.2729H232.595Z" fill="var(--fill-0, #1C1917)"/>
<path d="M267.23 7.43785H281.052C285.159 7.43785 288.782 8.12935 291.92 9.51235C295.092 10.8616 297.546 12.9024 299.282 15.6347C301.051 18.3669 301.936 21.6726 301.936 25.5518C301.936 29.4647 301.035 32.8378 299.232 35.6713C297.462 38.471 294.891 40.613 291.519 42.0972C288.147 43.5477 284.107 44.2729 279.4 44.2729H267.23V7.43785ZM275.644 42.9574C276.178 43.126 276.829 43.261 277.597 43.3621C278.398 43.4296 279.55 43.4633 281.052 43.4633C283.556 43.4633 285.66 42.7718 287.363 41.3888C289.065 40.0058 290.351 37.9988 291.219 35.3677C292.12 32.7366 292.571 29.5153 292.571 25.7036C292.571 22.1955 292.104 19.1428 291.169 16.5454C290.234 13.9143 288.865 11.8736 287.062 10.4231C285.293 8.97264 283.172 8.24741 280.702 8.24741H275.393L275.844 7.94382V43.9187L275.644 42.9574Z" fill="var(--fill-0, #1C1917)"/>
</g>
</g>
</svg>
